# Blender 4.2.11 LTS
# www.blender.org
mtllib fork_liftA1.mtl
o mast_inner_l
v -0.030000 0.305000 0.200000
v -0.030000 0.305000 2.400000
v -0.030000 0.355000 0.200000
v -0.030000 0.355000 2.400000
v 0.030000 0.305000 0.200000
v 0.030000 0.305000 2.400000
v 0.030000 0.355000 0.200000
v 0.030000 0.355000 2.400000
vn -1.0000 -0.0000 -0.0000
vn -0.0000 1.0000 -0.0000
vn 1.0000 -0.0000 -0.0000
vn -0.0000 -1.0000 -0.0000
vn -0.0000 -0.0000 -1.0000
vn -0.0000 -0.0000 1.0000
s 0
usemtl mast_grey
f 2//1 3//1 1//1
f 4//2 7//2 3//2
f 8//3 5//3 7//3
f 6//4 1//4 5//4
f 7//5 1//5 3//5
f 4//6 6//6 8//6
f 2//1 4//1 3//1
f 4//2 8//2 7//2
f 8//3 6//3 5//3
f 6//4 2//4 1//4
f 7//5 5//5 1//5
f 4//6 2//6 6//6
o mast_inner_r
v -0.030000 -0.355000 0.200000
v -0.030000 -0.355000 2.400000
v -0.030000 -0.305000 0.200000
v -0.030000 -0.305000 2.400000
v 0.030000 -0.355000 0.200000
v 0.030000 -0.355000 2.400000
v 0.030000 -0.305000 0.200000
v 0.030000 -0.305000 2.400000
vn -1.0000 -0.0000 -0.0000
vn -0.0000 1.0000 -0.0000
vn 1.0000 -0.0000 -0.0000
vn -0.0000 -1.0000 -0.0000
vn -0.0000 -0.0000 -1.0000
vn -0.0000 -0.0000 1.0000
s 0
usemtl mast_grey
f 10//7 11//7 9//7
f 12//8 15//8 11//8
f 16//9 13//9 15//9
f 14//10 9//10 13//10
f 15//11 9//11 11//11
f 12//12 14//12 16//12
f 10//7 12//7 11//7
f 12//8 16//8 15//8
f 16//9 14//9 13//9
f 14//10 10//10 9//10
f 15//11 13//11 9//11
f 12//12 10//12 14//12
