# Blender 4.2.11 LTS
# www.blender.org
mtllib fork_tilt.mtl
o backrest
v -0.050000 -0.480000 -0.215000
v -0.050000 -0.480000 0.935000
v -0.050000 0.480000 -0.215000
v -0.050000 0.480000 0.935000
v 0.050000 -0.480000 -0.215000
v 0.050000 -0.480000 0.935000
v 0.050000 0.480000 -0.215000
v 0.050000 0.480000 0.935000
vn -1.0000 -0.0000 -0.0000
vn -0.0000 1.0000 -0.0000
vn 1.0000 -0.0000 -0.0000
vn -0.0000 -1.0000 -0.0000
vn -0.0000 -0.0000 -1.0000
vn -0.0000 -0.0000 1.0000
s 0
usemtl fork_blue
f 2//1 3//1 1//1
f 4//2 7//2 3//2
f 8//3 5//3 7//3
f 6//4 1//4 5//4
f 7//5 1//5 3//5
f 4//6 6//6 8//6
f 2//1 4//1 3//1
f 4//2 8//2 7//2
f 8//3 6//3 5//3
f 6//4 2//4 1//4
f 7//5 5//5 1//5
f 4//6 2//6 6//6
o tine_l
v -1.150000 0.150000 -0.230000
v -1.150000 0.150000 -0.190000
v -1.150000 0.250000 -0.230000
v -1.150000 0.250000 -0.190000
v 0.090000 0.150000 -0.230000
v 0.090000 0.150000 -0.190000
v 0.090000 0.250000 -0.230000
v 0.090000 0.250000 -0.190000
vn -1.0000 -0.0000 -0.0000
vn -0.0000 1.0000 -0.0000
vn 1.0000 -0.0000 -0.0000
vn -0.0000 -1.0000 -0.0000
vn -0.0000 -0.0000 -1.0000
vn -0.0000 -0.0000 1.0000
s 0
usemtl fork_blue
f 10//7 11//7 9//7
f 12//8 15//8 11//8
f 16//9 13//9 15//9
f 14//10 9//10 13//10
f 15//11 9//11 11//11
f 12//12 14//12 16//12
f 10//7 12//7 11//7
f 12//8 16//8 15//8
f 16//9 14//9 13//9
f 14//10 10//10 9//10
f 15//11 13//11 9//11
f 12//12 10//12 14//12
o tine_r
v -1.150000 -0.250000 -0.230000
v -1.150000 -0.250000 -0.190000
v -1.150000 -0.150000 -0.230000
v -1.150000 -0.150000 -0.190000
v 0.090000 -0.250000 -0.230000
v 0.090000 -0.250000 -0.190000
v 0.090000 -0.150000 -0.230000
v 0.090000 -0.150000 -0.190000
vn -1.0000 -0.0000 -0.0000
vn -0.0000 1.0000 -0.0000
vn 1.0000 -0.0000 -0.0000
vn -0.0000 -1.0000 -0.0000
vn -0.0000 -0.0000 -1.0000
vn -0.0000 -0.0000 1.0000
s 0
usemtl fork_blue
f 18//13 19//13 17//13
f 20//14 23//14 19//14
f 24//15 21//15 23//15
f 22//16 17//16 21//16
f 23//17 17//17 19//17
f 20//18 22//18 24//18
f 18//13 20//13 19//13
f 20//14 24//14 23//14
f 24//15 22//15 21//15
f 22//16 18//16 17//16
f 23//17 21//17 17//17
f 20//18 18//18 22//18
