# Blender 4.2.11 LTS
# www.blender.org
mtllib front_right.mtl
o wheel_fr
v 0.000000 0.050000 0.127000
v 0.000000 -0.050000 0.127000
v 0.016577 0.050000 0.125914
v 0.016577 -0.050000 0.125914
v 0.032870 0.050000 0.122673
v 0.032870 -0.050000 0.122673
v 0.048601 0.050000 0.117333
v 0.048601 -0.050000 0.117333
v 0.063500 0.050000 0.109985
v 0.063500 -0.050000 0.109985
v 0.077313 0.050000 0.100756
v 0.077313 -0.050000 0.100756
v 0.089803 0.050000 0.089803
v 0.089803 -0.050000 0.089803
v 0.100756 0.050000 0.077313
v 0.100756 -0.050000 0.077313
v 0.109985 0.050000 0.063500
v 0.109985 -0.050000 0.063500
v 0.117333 0.050000 0.048601
v 0.117333 -0.050000 0.048601
v 0.122673 0.050000 0.032870
v 0.122673 -0.050000 0.032870
v 0.125914 0.050000 0.016577
v 0.125914 -0.050000 0.016577
v 0.127000 0.050000 0.000000
v 0.127000 -0.050000 0.000000
v 0.125914 0.050000 -0.016577
v 0.125914 -0.050000 -0.016577
v 0.122673 0.050000 -0.032870
v 0.122673 -0.050000 -0.032870
v 0.117333 0.050000 -0.048601
v 0.117333 -0.050000 -0.048601
v 0.109985 0.050000 -0.063500
v 0.109985 -0.050000 -0.063500
v 0.100756 0.050000 -0.077313
v 0.100756 -0.050000 -0.077313
v 0.089803 0.050000 -0.089803
v 0.089803 -0.050000 -0.089803
v 0.077313 0.050000 -0.100756
v 0.077313 -0.050000 -0.100756
v 0.063500 0.050000 -0.109985
v 0.063500 -0.050000 -0.109985
v 0.048601 0.050000 -0.117333
v 0.048601 -0.050000 -0.117333
v 0.032870 0.050000 -0.122673
v 0.032870 -0.050000 -0.122673
v 0.016577 0.050000 -0.125914
v 0.016577 -0.050000 -0.125914
v 0.000000 0.050000 -0.127000
v 0.000000 -0.050000 -0.127000
v -0.016577 0.050000 -0.125914
v -0.016577 -0.050000 -0.125914
v -0.032870 0.050000 -0.122673
v -0.032870 -0.050000 -0.122673
v -0.048601 0.050000 -0.117333
v -0.048601 -0.050000 -0.117333
v -0.063500 0.050000 -0.109985
v -0.063500 -0.050000 -0.109985
v -0.077313 0.050000 -0.100756
v -0.077313 -0.050000 -0.100756
v -0.089803 0.050000 -0.089803
v -0.089803 -0.050000 -0.089803
v -0.100756 0.050000 -0.077313
v -0.100756 -0.050000 -0.077313
v -0.109985 0.050000 -0.063500
v -0.109985 -0.050000 -0.063500
v -0.117333 0.050000 -0.048601
v -0.117333 -0.050000 -0.048601
v -0.122673 0.050000 -0.032870
v -0.122673 -0.050000 -0.032870
v -0.125914 0.050000 -0.016577
v -0.125914 -0.050000 -0.016577
v -0.127000 0.050000 0.000000
v -0.127000 -0.050000 0.000000
v -0.125914 0.050000 0.016577
v -0.125914 -0.050000 0.016577
v -0.122673 0.050000 0.032870
v -0.122673 -0.050000 0.032870
v -0.117333 0.050000 0.048601
v -0.117333 -0.050000 0.048601
v -0.109985 0.050000 0.063500
v -0.109985 -0.050000 0.063500
v -0.100756 0.050000 0.077313
v -0.100756 -0.050000 0.077313
v -0.089803 0.050000 0.089803
v -0.089803 -0.050000 0.089803
v -0.077313 0.050000 0.100756
v -0.077313 -0.050000 0.100756
v -0.063500 0.050000 0.109985
v -0.063500 -0.050000 0.109985
v -0.048601 0.050000 0.117333
v -0.048601 -0.050000 0.117333
v -0.032870 0.050000 0.122673
v -0.032870 -0.050000 0.122673
v -0.016577 0.050000 0.125914
v -0.016577 -0.050000 0.125914
vn 0.0654 -0.0000 0.9979
vn 0.1951 -0.0000 0.9808
vn 0.3214 -0.0000 0.9469
vn 0.4423 -0.0000 0.8969
vn 0.5556 -0.0000 0.8315
vn 0.6593 -0.0000 0.7518
vn 0.7518 -0.0000 0.6593
vn 0.8315 -0.0000 0.5556
vn 0.8969 -0.0000 0.4423
vn 0.9469 -0.0000 0.3214
vn 0.9808 -0.0000 0.1951
vn 0.9979 -0.0000 0.0654
vn 0.9979 -0.0000 -0.0654
vn 0.9808 -0.0000 -0.1951
vn 0.9469 -0.0000 -0.3214
vn 0.8969 -0.0000 -0.4423
vn 0.8315 -0.0000 -0.5556
vn 0.7518 -0.0000 -0.6593
vn 0.6593 -0.0000 -0.7518
vn 0.5556 -0.0000 -0.8315
vn 0.4423 -0.0000 -0.8969
vn 0.3214 -0.0000 -0.9469
vn 0.1951 -0.0000 -0.9808
vn 0.0654 -0.0000 -0.9979
vn -0.0654 -0.0000 -0.9979
vn -0.1951 -0.0000 -0.9808
vn -0.3214 -0.0000 -0.9469
vn -0.4423 -0.0000 -0.8969
vn -0.5556 -0.0000 -0.8315
vn -0.6593 -0.0000 -0.7518
vn -0.7518 -0.0000 -0.6593
vn -0.8315 -0.0000 -0.5556
vn -0.8969 -0.0000 -0.4423
vn -0.9469 -0.0000 -0.3214
vn -0.9808 -0.0000 -0.1951
vn -0.9979 -0.0000 -0.0654
vn -0.9979 -0.0000 0.0654
vn -0.9808 -0.0000 0.1951
vn -0.9469 -0.0000 0.3214
vn -0.8969 -0.0000 0.4423
vn -0.8315 -0.0000 0.5556
vn -0.7518 -0.0000 0.6593
vn -0.6593 -0.0000 0.7518
vn -0.5556 -0.0000 0.8315
vn -0.4423 -0.0000 0.8969
vn -0.3214 -0.0000 0.9469
vn -0.0000 -1.0000 -0.0000
vn -0.1951 -0.0000 0.9808
vn -0.0654 -0.0000 0.9979
vn -0.0000 1.0000 -0.0000
vn -0.0000 -1.0000 -0.0001
vn -0.0000 -1.0000 0.0001
s 0
usemtl wheel_black
f 2//1 3//1 1//1
f 4//2 5//2 3//2
f 6//3 7//3 5//3
f 8//4 9//4 7//4
f 10//5 11//5 9//5
f 12//6 13//6 11//6
f 14//7 15//7 13//7
f 16//8 17//8 15//8
f 18//9 19//9 17//9
f 20//10 21//10 19//10
f 22//11 23//11 21//11
f 24//12 25//12 23//12
f 26//13 27//13 25//13
f 28//14 29//14 27//14
f 30//15 31//15 29//15
f 32//16 33//16 31//16
f 34//17 35//17 33//17
f 36//18 37//18 35//18
f 38//19 39//19 37//19
f 40//20 41//20 39//20
f 42//21 43//21 41//21
f 44//22 45//22 43//22
f 46//23 47//23 45//23
f 48//24 49//24 47//24
f 50//25 51//25 49//25
f 52//26 53//26 51//26
f 54//27 55//27 53//27
f 56//28 57//28 55//28
f 58//29 59//29 57//29
f 60//30 61//30 59//30
f 62//31 63//31 61//31
f 64//32 65//32 63//32
f 66//33 67//33 65//33
f 68//34 69//34 67//34
f 70//35 71//35 69//35
f 72//36 73//36 71//36
f 74//37 75//37 73//37
f 76//38 77//38 75//38
f 78//39 79//39 77//39
f 80//40 81//40 79//40
f 82//41 83//41 81//41
f 84//42 85//42 83//42
f 86//43 87//43 85//43
f 88//44 89//44 87//44
f 90//45 91//45 89//45
f 92//46 93//46 91//46
f 70//47 38//47 6//47
f 94//48 95//48 93//48
f 96//49 1//49 95//49
f 31//50 63//50 95//50
f 2//1 4//1 3//1
f 4//2 6//2 5//2
f 6//3 8//3 7//3
f 8//4 10//4 9//4
f 10//5 12//5 11//5
f 12//6 14//6 13//6
f 14//7 16//7 15//7
f 16//8 18//8 17//8
f 18//9 20//9 19//9
f 20//10 22//10 21//10
f 22//11 24//11 23//11
f 24//12 26//12 25//12
f 26//13 28//13 27//13
f 28//14 30//14 29//14
f 30//15 32//15 31//15
f 32//16 34//16 33//16
f 34//17 36//17 35//17
f 36//18 38//18 37//18
f 38//19 40//19 39//19
f 40//20 42//20 41//20
f 42//21 44//21 43//21
f 44//22 46//22 45//22
f 46//23 48//23 47//23
f 48//24 50//24 49//24
f 50//25 52//25 51//25
f 52//26 54//26 53//26
f 54//27 56//27 55//27
f 56//28 58//28 57//28
f 58//29 60//29 59//29
f 60//30 62//30 61//30
f 62//31 64//31 63//31
f 64//32 66//32 65//32
f 66//33 68//33 67//33
f 68//34 70//34 69//34
f 70//35 72//35 71//35
f 72//36 74//36 73//36
f 74//37 76//37 75//37
f 76//38 78//38 77//38
f 78//39 80//39 79//39
f 80//40 82//40 81//40
f 82//41 84//41 83//41
f 84//42 86//42 85//42
f 86//43 88//43 87//43
f 88//44 90//44 89//44
f 90//45 92//45 91//45
f 92//46 94//46 93//46
f 6//47 4//47 2//47
f 2//47 96//47 94//47
f 94//47 92//47 90//47
f 90//47 88//47 86//47
f 86//47 84//47 82//47
f 82//47 80//47 78//47
f 78//47 76//47 74//47
f 74//47 72//47 70//47
f 70//47 68//47 66//47
f 66//47 64//47 62//47
f 62//47 60//47 58//47
f 58//51 56//51 54//51
f 54//47 52//47 50//47
f 50//47 48//47 46//47
f 46//47 44//47 42//47
f 42//47 40//47 38//47
f 38//47 36//47 34//47
f 34//47 32//47 30//47
f 30//47 28//47 26//47
f 26//47 24//47 22//47
f 22//47 20//47 18//47
f 18//47 16//47 14//47
f 14//47 12//47 10//47
f 10//52 8//52 6//52
f 6//47 2//47 94//47
f 94//47 90//47 86//47
f 86//47 82//47 78//47
f 78//47 74//47 70//47
f 70//47 66//47 62//47
f 62//47 58//47 54//47
f 54//47 50//47 46//47
f 46//47 42//47 38//47
f 38//47 34//47 30//47
f 30//47 26//47 22//47
f 22//47 18//47 14//47
f 14//47 10//47 6//47
f 6//47 94//47 86//47
f 86//47 78//47 70//47
f 70//47 62//47 54//47
f 54//47 46//47 38//47
f 38//47 30//47 22//47
f 22//47 14//47 6//47
f 6//47 86//47 70//47
f 70//47 54//47 38//47
f 38//47 22//47 6//47
f 94//48 96//48 95//48
f 96//49 2//49 1//49
f 95//50 1//50 3//50
f 3//50 5//50 7//50
f 7//50 9//50 11//50
f 11//50 13//50 15//50
f 15//50 17//50 19//50
f 19//50 21//50 23//50
f 23//50 25//50 27//50
f 27//50 29//50 31//50
f 31//50 33//50 35//50
f 35//50 37//50 39//50
f 39//50 41//50 43//50
f 43//50 45//50 47//50
f 47//50 49//50 51//50
f 51//50 53//50 55//50
f 55//50 57//50 59//50
f 59//50 61//50 63//50
f 63//50 65//50 67//50
f 67//50 69//50 71//50
f 71//50 73//50 75//50
f 75//50 77//50 79//50
f 79//50 81//50 83//50
f 83//50 85//50 87//50
f 87//50 89//50 91//50
f 91//50 93//50 95//50
f 95//50 3//50 7//50
f 7//50 11//50 15//50
f 15//50 19//50 23//50
f 23//50 27//50 31//50
f 31//50 35//50 39//50
f 39//50 43//50 47//50
f 47//50 51//50 55//50
f 55//50 59//50 63//50
f 63//50 67//50 71//50
f 71//50 75//50 79//50
f 79//50 83//50 87//50
f 87//50 91//50 95//50
f 95//50 7//50 15//50
f 15//50 23//50 31//50
f 31//50 39//50 47//50
f 47//50 55//50 63//50
f 63//50 71//50 79//50
f 79//50 87//50 95//50
f 95//50 15//50 31//50
f 31//50 47//50 63//50
f 63//50 79//50 95//50
